<svg width="291" height="291" viewBox="0 0 291 291" fill="none" xmlns="http://www.w3.org/2000/svg">
<path d="M197.638 197.638C192.909 202.366 185.27 202.366 180.541 197.638L145.5 162.596L110.459 197.638C105.73 202.366 98.0913 202.366 93.3625 197.638C88.6338 192.909 88.6338 185.27 93.3625 180.541L128.404 145.5L93.3625 110.459C88.6338 105.73 88.6338 98.0913 93.3625 93.3625C98.0913 88.6338 105.73 88.6338 110.459 93.3625L145.5 128.404L180.541 93.3625C185.27 88.6338 192.909 88.6338 197.638 93.3625C202.366 98.0913 202.366 105.73 197.638 110.459L162.596 145.5L197.638 180.541C202.245 185.149 202.245 192.909 197.638 197.638Z" fill="white"/>
</svg>
